<svg width="392" height="87" viewBox="0 0 392 87" fill="none" xmlns="http://www.w3.org/2000/svg">
<path d="M46.7721 64.1121C46.7721 65.4764 46.5115 66.7565 45.9903 67.9523C45.469 69.148 44.7562 70.1981 43.8517 71.1026C42.9626 71.9918 41.9201 72.6969 40.7244 73.2182C39.5286 73.7394 38.2486 74 36.8842 74H20.3966V41.0249H36.8842C38.2486 41.0249 39.5286 41.2855 40.7244 41.8067C41.9201 42.3279 42.9626 43.0408 43.8517 43.9453C44.7562 44.8344 45.469 45.8769 45.9903 47.0726C46.5115 48.2684 46.7721 49.5484 46.7721 50.9128C46.7721 51.526 46.6878 52.1546 46.5192 52.7984C46.3505 53.4423 46.1129 54.0632 45.8063 54.661C45.4997 55.2589 45.1318 55.8031 44.7025 56.2937C44.2733 56.7843 43.7981 57.1905 43.2768 57.5124C43.8134 57.8037 44.2963 58.2023 44.7255 58.7082C45.1548 59.1988 45.5227 59.743 45.8293 60.3408C46.1359 60.9387 46.3659 61.5673 46.5192 62.2265C46.6878 62.8703 46.7721 63.4989 46.7721 64.1121ZM26.9962 67.4004H36.8842C37.3441 67.4004 37.7733 67.3161 38.1719 67.1474C38.5705 66.9788 38.9154 66.7488 39.2067 66.4576C39.5133 66.151 39.7509 65.7984 39.9195 65.3998C40.0882 65.0012 40.1725 64.572 40.1725 64.1121C40.1725 63.6522 40.0882 63.2229 39.9195 62.8243C39.7509 62.4257 39.5133 62.0808 39.2067 61.7895C38.9154 61.4829 38.5705 61.2453 38.1719 61.0767C37.7733 60.9081 37.3441 60.8237 36.8842 60.8237H26.9962V67.4004ZM26.9962 54.2241H36.8842C37.3441 54.2241 37.7733 54.1398 38.1719 53.9712C38.5705 53.8025 38.9154 53.5726 39.2067 53.2813C39.5133 52.9747 39.7509 52.6221 39.9195 52.2235C40.0882 51.8096 40.1725 51.3727 40.1725 50.9128C40.1725 50.4529 40.0882 50.0237 39.9195 49.6251C39.7509 49.2265 39.5133 48.8816 39.2067 48.5903C38.9154 48.2837 38.5705 48.0461 38.1719 47.8774C37.7733 47.7088 37.3441 47.6245 36.8842 47.6245H26.9962V54.2241ZM71.5609 47.6245V60.8237H78.1606C79.065 60.8237 79.9159 60.6551 80.713 60.3179C81.5102 59.9653 82.2077 59.49 82.8056 58.8921C83.4035 58.2943 83.871 57.5968 84.2083 56.7996C84.5609 55.9871 84.7372 55.1286 84.7372 54.2241C84.7372 53.3196 84.5609 52.4688 84.2083 51.6717C83.871 50.8592 83.4035 50.154 82.8056 49.5561C82.2077 48.9582 81.5102 48.4906 80.713 48.1534C79.9159 47.8008 79.065 47.6245 78.1606 47.6245H71.5609ZM71.5609 74H64.9613V41.0249H78.1606C79.3716 41.0249 80.5367 41.1858 81.6558 41.5078C82.7749 41.8144 83.8174 42.2589 84.7832 42.8415C85.7643 43.4087 86.6535 44.0986 87.4506 44.9111C88.2631 45.7082 88.953 46.5974 89.5202 47.5785C90.1027 48.5596 90.5473 49.6097 90.8539 50.7289C91.1759 51.848 91.3368 53.013 91.3368 54.2241C91.3368 55.3586 91.1912 56.4623 90.8999 57.5354C90.624 58.6085 90.2177 59.628 89.6812 60.5938C89.1599 61.5596 88.5161 62.4487 87.7496 63.2612C86.9831 64.0737 86.1246 64.7789 85.1741 65.3768L88.8303 74H81.8168L78.9424 67.3544L71.5609 67.4004V74ZM115.482 74H108.882V41.0249H115.482V74ZM161.058 70.6657C159.525 71.9688 157.816 72.9729 155.93 73.6781C154.045 74.3679 152.082 74.7129 150.044 74.7129C148.48 74.7129 146.97 74.5059 145.514 74.092C144.072 73.6934 142.723 73.1262 141.466 72.3903C140.209 71.6392 139.06 70.75 138.017 69.7229C136.975 68.6804 136.085 67.5307 135.35 66.2736C134.614 65.0012 134.039 63.6368 133.625 62.1805C133.226 60.7241 133.027 59.2141 133.027 57.6504C133.027 56.0867 133.226 54.5844 133.625 53.1433C134.039 51.7023 134.614 50.3533 135.35 49.0962C136.085 47.8238 136.975 46.674 138.017 45.6469C139.06 44.6045 140.209 43.7153 141.466 42.9795C142.723 42.2436 144.072 41.6764 145.514 41.2778C146.97 40.8639 148.48 40.6569 150.044 40.6569C152.082 40.6569 154.045 41.0095 155.93 41.7147C157.816 42.4046 159.525 43.401 161.058 44.7041L157.609 50.4529C156.613 49.4411 155.463 48.6516 154.16 48.0844C152.857 47.5019 151.485 47.2106 150.044 47.2106C148.603 47.2106 147.246 47.4865 145.973 48.0384C144.716 48.5903 143.613 49.3415 142.662 50.2919C141.712 51.2271 140.96 52.3308 140.409 53.6033C139.857 54.8603 139.581 56.2094 139.581 57.6504C139.581 59.1068 139.857 60.4712 140.409 61.7436C140.96 63.016 141.712 64.1274 142.662 65.0779C143.613 66.0283 144.716 66.7795 145.973 67.3314C147.246 67.8833 148.603 68.1592 150.044 68.1592C150.871 68.1592 151.676 68.0596 152.458 67.8603C153.24 67.661 153.983 67.385 154.689 67.0325V57.6504H161.058V70.6657ZM185.939 74H179.339V41.0249H185.939V54.2241H199.115V41.0249H205.715V74H199.115V60.8237H185.939V74ZM238.897 74H232.32V47.6245H222.41V41.0249H248.785V47.6245H238.897V74ZM288.084 74H265.48V41.0249H288.084V47.6245H272.079V54.2241H282.91V60.8237H272.079V67.4004H288.084V74ZM312.505 47.6245V60.8237H319.104C320.009 60.8237 320.86 60.6551 321.657 60.3179C322.454 59.9653 323.152 59.49 323.749 58.8921C324.347 58.2943 324.815 57.5968 325.152 56.7996C325.505 55.9871 325.681 55.1286 325.681 54.2241C325.681 53.3196 325.505 52.4688 325.152 51.6717C324.815 50.8592 324.347 50.154 323.749 49.5561C323.152 48.9582 322.454 48.4906 321.657 48.1534C320.86 47.8008 320.009 47.6245 319.104 47.6245H312.505ZM312.505 74H305.905V41.0249H319.104C320.315 41.0249 321.481 41.1858 322.6 41.5078C323.719 41.8144 324.761 42.2589 325.727 42.8415C326.708 43.4087 327.597 44.0986 328.394 44.9111C329.207 45.7082 329.897 46.5974 330.464 47.5785C331.047 48.5596 331.491 49.6097 331.798 50.7289C332.12 51.848 332.281 53.013 332.281 54.2241C332.281 55.3586 332.135 56.4623 331.844 57.5354C331.568 58.6085 331.162 59.628 330.625 60.5938C330.104 61.5596 329.46 62.4487 328.693 63.2612C327.927 64.0737 327.068 64.7789 326.118 65.3768L329.774 74H322.761L319.886 67.3544L312.505 67.4004V74ZM376.201 74H369.142L356.426 52.2925V74H349.826V41.0249H356.885L369.602 62.7553V41.0249H376.201V74Z" fill="white"/>
<path d="M30.2304 35.9256L30.3837 35.925C31.1648 35.9217 31.7944 35.2521 31.7909 34.4295C31.7875 33.6069 31.1524 32.9427 30.3713 32.946L16.8243 33.0026C16.0431 33.0058 15.4137 33.6754 15.4171 34.4979C15.4206 35.3205 16.0556 35.9849 16.8368 35.9816L16.9901 35.981C17.3859 37.9037 18.5232 39.5216 20.0624 40.5234L27.1962 40.4936C28.7269 39.479 29.8507 37.8516 30.2304 35.9256Z" fill="white"/>
<rect x="20.373" y="41.1814" width="6.66198" height="32.9705" fill="white"/>
<rect x="20.3728" y="41.1814" width="6.66198" height="32.9705" fill="white"/>
<path d="M23.514 31.8102C26.9248 31.7959 28.811 32.5312 30.0715 29.169C32.2573 23.3342 28.2099 11.8641 23.5134 11.8838C25.3799 14.6683 25.2295 19.2057 22.5743 23.2805C21.911 21.9796 22.2022 20.0682 22.1329 18.4211C19.2444 19.8319 16.7497 23.3991 16.7703 28.3321C16.7853 31.9515 20.1033 31.8244 23.514 31.8102Z" fill="#F5A73B"/>
<path d="M23.259 31.4529C26.1615 31.4407 28.2383 32.2026 29.3111 29.3643C31.1713 24.4387 29.3202 14.442 25.3236 14.4587C26.5578 20.8672 25.5273 20.9395 22.4596 24.2525C21.8953 23.1543 21.3951 21.5456 21.3362 20.1551C18.8781 21.3461 17.5031 24.3527 17.5205 28.517C17.5332 31.5724 20.3567 31.465 23.259 31.4529Z" fill="#F5C13B"/>
<path d="M20.3538 15.0407C21.0158 15.1418 21.8667 14.8836 21.8825 14.1224C21.8969 13.3938 21.4204 13.0828 21.0864 12.3032C20.8177 11.6753 20.7938 11.3995 21.1099 10.8567C20.4178 10.6412 19.2024 12.4717 19.2307 13.4505C19.25 14.2102 19.6175 14.9286 20.3538 15.0407Z" fill="#F5A73B"/>
</svg>
