<svg width="177" height="178" viewBox="0 0 177 178" fill="none" xmlns="http://www.w3.org/2000/svg">
<g clip-path="url(#clip0_260_123)">
<circle cx="88.2233" cy="89.5" r="88.2916" fill="#6942DC"/>
<circle cx="88.2233" cy="89.5" r="88.2916" fill="#6942DC"/>
<circle cx="88.2289" cy="89.4991" r="76.5072" fill="#1F1F1F"/>
<path d="M121.336 136.514C121.336 139.411 120.782 142.129 119.676 144.668C118.569 147.207 117.055 149.437 115.135 151.357C113.247 153.245 111.033 154.743 108.494 155.85C105.955 156.956 103.237 157.51 100.34 157.51L65.33 157.51L65.33 87.4902L100.34 87.4902C103.237 87.4902 105.955 88.0436 108.494 89.1504C111.033 90.2571 113.247 91.7708 115.135 93.6914C117.055 95.5794 118.569 97.7929 119.676 100.332C120.782 102.871 121.336 105.589 121.336 108.486C121.336 109.788 121.157 111.123 120.799 112.49C120.441 113.857 119.936 115.176 119.285 116.445C118.634 117.715 117.853 118.87 116.941 119.912C116.03 120.954 115.021 121.816 113.914 122.5C115.053 123.118 116.079 123.965 116.99 125.039C117.902 126.081 118.683 127.236 119.334 128.506C119.985 129.775 120.473 131.11 120.799 132.51C121.157 133.877 121.336 135.212 121.336 136.514ZM79.3436 143.496L100.34 143.496C101.316 143.496 102.228 143.317 103.074 142.959C103.92 142.601 104.653 142.113 105.271 141.494C105.922 140.843 106.427 140.094 106.785 139.248C107.143 138.402 107.322 137.49 107.322 136.514C107.322 135.537 107.143 134.626 106.785 133.779C106.427 132.933 105.922 132.2 105.271 131.582C104.653 130.931 103.92 130.426 103.074 130.068C102.228 129.71 101.316 129.531 100.34 129.531L79.3436 129.531L79.3436 143.496ZM79.3436 115.518L100.34 115.518C101.316 115.518 102.228 115.339 103.074 114.98C103.92 114.622 104.653 114.134 105.271 113.516C105.922 112.865 106.427 112.116 106.785 111.27C107.143 110.391 107.322 109.463 107.322 108.486C107.322 107.51 107.143 106.598 106.785 105.752C106.427 104.906 105.922 104.173 105.271 103.555C104.653 102.904 103.92 102.399 103.074 102.041C102.228 101.683 101.316 101.504 100.34 101.504L79.3436 101.504L79.3436 115.518Z" fill="#FCFCFC"/>
<path d="M86.7102 76.5882L87.0424 76.5868C88.7349 76.5799 90.0988 75.1436 90.0912 73.3791C90.0837 71.6145 88.7075 70.1898 87.015 70.1967L57.663 70.3163C55.9703 70.3232 54.6066 71.7593 54.6142 73.5237C54.6217 75.2882 55.9977 76.7133 57.6904 76.7064L58.0224 76.7051C58.8804 80.8296 61.3449 84.3002 64.68 86.4492L80.1366 86.3862C83.4532 84.2101 85.8878 80.7195 86.7102 76.5882Z" fill="#FCFCFC"/>
<rect x="65.3009" y="87.5" width="14.1461" height="70.0098" fill="white"/>
<path d="M72.1229 69.0601C80.5456 69.0252 85.2035 70.8227 88.3161 62.6038C93.7138 48.3409 83.7193 20.3028 72.1215 20.3508C76.7308 27.1575 76.3593 38.2488 69.8025 48.2097C68.1647 45.0297 68.8837 40.3574 68.7126 36.331C61.5798 39.7796 55.4192 48.4995 55.4701 60.558C55.5072 69.4055 63.7008 69.0949 72.1229 69.0601Z" fill="#F5A73B"/>
<path d="M71.4947 68.1867C78.6621 68.157 83.7906 70.0193 86.4397 63.0812C91.0332 51.0407 86.4622 26.6042 76.593 26.645C79.6408 42.3104 77.0959 42.4873 69.5207 50.5856C68.1271 47.9012 66.8919 43.9687 66.7464 40.5698C60.6765 43.4811 57.2811 50.8307 57.3241 61.01C57.3554 68.4788 64.3278 68.2163 71.4947 68.1867Z" fill="#F5C13B"/>
<path d="M64.3202 28.0661C65.9548 28.3132 68.0561 27.682 68.0951 25.8213C68.1307 24.0403 66.954 23.28 66.1293 21.3743C65.4658 19.8393 65.4066 19.1652 66.1873 17.8384C64.4782 17.3117 61.4768 21.7862 61.5468 24.1789C61.5944 26.036 62.5019 27.792 64.3202 28.0661Z" fill="#F5A73B"/>
</g>
<defs>
<clipPath id="clip0_260_123">
<rect width="177" height="177" fill="white" transform="translate(0 0.842041)"/>
</clipPath>
</defs>
</svg>
