<svg width="392" height="86" viewBox="0 0 392 86" fill="none" xmlns="http://www.w3.org/2000/svg">
<path d="M46.772 63.6608C46.772 65.0251 46.5114 66.3052 45.9901 67.501C45.4689 68.6967 44.7561 69.7468 43.8516 70.6513C42.9624 71.5405 41.92 72.2456 40.7242 72.7669C39.5285 73.2881 38.2484 73.5487 36.884 73.5487H20.3965V40.5736H36.884C38.2484 40.5736 39.5285 40.8342 40.7242 41.3554C41.92 41.8766 42.9624 42.5895 43.8516 43.494C44.7561 44.3831 45.4689 45.4256 45.9901 46.6213C46.5114 47.8171 46.772 49.0971 46.772 50.4615C46.772 51.0747 46.6877 51.7033 46.519 52.3471C46.3504 52.991 46.1128 53.6119 45.8062 54.2097C45.4996 54.8076 45.1317 55.3518 44.7024 55.8424C44.2732 56.333 43.7979 56.7392 43.2767 57.0611C43.8133 57.3524 44.2962 57.751 44.7254 58.2569C45.1547 58.7475 45.5226 59.2917 45.8292 59.8896C46.1358 60.4874 46.3657 61.116 46.519 61.7752C46.6877 62.419 46.772 63.0476 46.772 63.6608ZM26.9961 66.9491H36.884C37.3439 66.9491 37.7732 66.8648 38.1718 66.6961C38.5704 66.5275 38.9153 66.2976 39.2066 66.0063C39.5132 65.6997 39.7508 65.3471 39.9194 64.9485C40.088 64.5499 40.1724 64.1207 40.1724 63.6608C40.1724 63.2009 40.088 62.7716 39.9194 62.373C39.7508 61.9745 39.5132 61.6295 39.2066 61.3383C38.9153 61.0316 38.5704 60.794 38.1718 60.6254C37.7732 60.4568 37.3439 60.3725 36.884 60.3725H26.9961V66.9491ZM26.9961 53.7728H36.884C37.3439 53.7728 37.7732 53.6885 38.1718 53.5199C38.5704 53.3512 38.9153 53.1213 39.2066 52.83C39.5132 52.5234 39.7508 52.1708 39.9194 51.7722C40.088 51.3583 40.1724 50.9214 40.1724 50.4615C40.1724 50.0016 40.088 49.5724 39.9194 49.1738C39.7508 48.7752 39.5132 48.4303 39.2066 48.139C38.9153 47.8324 38.5704 47.5948 38.1718 47.4262C37.7732 47.2575 37.3439 47.1732 36.884 47.1732H26.9961V53.7728ZM71.5608 47.1732V60.3725H78.1604C79.0649 60.3725 79.9157 60.2038 80.7129 59.8666C81.5101 59.514 82.2076 59.0387 82.8055 58.4409C83.4034 57.843 83.8709 57.1455 84.2082 56.3483C84.5608 55.5358 84.7371 54.6773 84.7371 53.7728C84.7371 52.8683 84.5608 52.0175 84.2082 51.2204C83.8709 50.4079 83.4034 49.7027 82.8055 49.1048C82.2076 48.5069 81.5101 48.0394 80.7129 47.7021C79.9157 47.3495 79.0649 47.1732 78.1604 47.1732H71.5608ZM71.5608 73.5487H64.9612V40.5736H78.1604C79.3715 40.5736 80.5366 40.7345 81.6557 41.0565C82.7748 41.3631 83.8173 41.8077 84.7831 42.3902C85.7642 42.9574 86.6533 43.6473 87.4505 44.4598C88.263 45.2569 88.9529 46.1461 89.5201 47.1272C90.1026 48.1083 90.5472 49.1585 90.8538 50.2776C91.1757 51.3967 91.3367 52.5617 91.3367 53.7728C91.3367 54.9073 91.1911 56.011 90.8998 57.0841C90.6238 58.1572 90.2176 59.1767 89.681 60.1425C89.1598 61.1083 88.516 61.9974 87.7494 62.8099C86.9829 63.6224 86.1245 64.3276 85.174 64.9255L88.8302 73.5487H81.8167L78.9423 66.9031L71.5608 66.9491V73.5487ZM115.482 73.5487H108.882V40.5736H115.482V73.5487ZM161.058 70.2144C159.525 71.5175 157.816 72.5216 155.93 73.2268C154.045 73.9166 152.082 74.2616 150.043 74.2616C148.48 74.2616 146.97 74.0546 145.513 73.6407C144.072 73.2421 142.723 72.6749 141.466 71.939C140.209 71.1879 139.059 70.2987 138.017 69.2716C136.975 68.2291 136.085 67.0794 135.35 65.8223C134.614 64.5499 134.039 63.1855 133.625 61.7292C133.226 60.2728 133.027 58.7628 133.027 57.1991C133.027 55.6354 133.226 54.1331 133.625 52.6921C134.039 51.251 134.614 49.902 135.35 48.6449C136.085 47.3725 136.975 46.2227 138.017 45.1956C139.059 44.1532 140.209 43.264 141.466 42.5282C142.723 41.7923 144.072 41.2251 145.513 40.8265C146.97 40.4126 148.48 40.2057 150.043 40.2057C152.082 40.2057 154.045 40.5582 155.93 41.2634C157.816 41.9533 159.525 42.9497 161.058 44.2528L157.609 50.0016C156.612 48.9898 155.463 48.2003 154.16 47.6331C152.857 47.0506 151.484 46.7593 150.043 46.7593C148.602 46.7593 147.246 47.0352 145.973 47.5871C144.716 48.139 143.612 48.8902 142.662 49.8406C141.712 50.7758 140.96 51.8796 140.408 53.152C139.857 54.409 139.581 55.7581 139.581 57.1991C139.581 58.6555 139.857 60.0199 140.408 61.2923C140.96 62.5647 141.712 63.6761 142.662 64.6266C143.612 65.577 144.716 66.3282 145.973 66.8801C147.246 67.432 148.602 67.7079 150.043 67.7079C150.871 67.7079 151.676 67.6083 152.458 67.409C153.24 67.2097 153.983 66.9338 154.688 66.5812V57.1991H161.058V70.2144ZM185.939 73.5487H179.339V40.5736H185.939V53.7728H199.115V40.5736H205.715V73.5487H199.115V60.3725H185.939V73.5487ZM238.897 73.5487H232.32V47.1732H222.409V40.5736H248.785V47.1732H238.897V73.5487ZM288.084 73.5487H265.479V40.5736H288.084V47.1732H272.079V53.7728H282.91V60.3725H272.079V66.9491H288.084V73.5487ZM312.505 47.1732V60.3725H319.104C320.009 60.3725 320.86 60.2038 321.657 59.8666C322.454 59.514 323.151 59.0387 323.749 58.4409C324.347 57.843 324.815 57.1455 325.152 56.3483C325.505 55.5358 325.681 54.6773 325.681 53.7728C325.681 52.8683 325.505 52.0175 325.152 51.2204C324.815 50.4079 324.347 49.7027 323.749 49.1048C323.151 48.5069 322.454 48.0394 321.657 47.7021C320.86 47.3495 320.009 47.1732 319.104 47.1732H312.505ZM312.505 73.5487H305.905V40.5736H319.104C320.315 40.5736 321.48 40.7345 322.6 41.0565C323.719 41.3631 324.761 41.8077 325.727 42.3902C326.708 42.9574 327.597 43.6473 328.394 44.4598C329.207 45.2569 329.897 46.1461 330.464 47.1272C331.046 48.1083 331.491 49.1585 331.798 50.2776C332.12 51.3967 332.28 52.5617 332.28 53.7728C332.28 54.9073 332.135 56.011 331.844 57.0841C331.568 58.1572 331.161 59.1767 330.625 60.1425C330.104 61.1083 329.46 61.9974 328.693 62.8099C327.927 63.6224 327.068 64.3276 326.118 64.9255L329.774 73.5487H322.76L319.886 66.9031L312.505 66.9491V73.5487ZM376.201 73.5487H369.142L356.425 51.8412V73.5487H349.826V40.5736H356.885L369.602 62.304V40.5736H376.201V73.5487Z" fill="#1F1F1F"/>
<path d="M30.2304 35.4743L30.3837 35.4737C31.1648 35.4704 31.7944 34.8008 31.7909 33.9782C31.7875 33.1556 31.1524 32.4914 30.3713 32.4947L16.8243 32.5513C16.0431 32.5545 15.4137 33.2241 15.4171 34.0466C15.4206 34.8692 16.0556 35.5336 16.8368 35.5303L16.9901 35.5297C17.3859 37.4524 18.5232 39.0704 20.0624 40.0721L27.1962 40.0423C28.7269 39.0277 29.8507 37.4004 30.2304 35.4743Z" fill="#393737"/>
<rect x="20.3729" y="40.7301" width="6.66198" height="32.9705" fill="#393737"/>
<rect x="20.3728" y="40.7301" width="6.66198" height="32.9705" fill="#393737" stroke="white" stroke-width="0.25"/>
<path d="M23.5141 31.3589C26.9249 31.3446 28.8111 32.0799 30.0716 28.7177C32.2574 22.8829 28.2101 11.4128 23.5135 11.4325C25.38 14.217 25.2296 18.7544 22.5744 22.8292C21.9111 21.5283 22.2023 19.6169 22.133 17.9698C19.2445 19.3806 16.7498 22.9478 16.7704 27.8808C16.7854 31.5002 20.1035 31.3731 23.5141 31.3589Z" fill="#F5A73B"/>
<path d="M23.259 31.0016C26.1615 30.9894 28.2383 31.7513 29.3111 28.913C31.1713 23.9874 29.3202 13.9907 25.3236 14.0074C26.5578 20.4159 25.5273 20.4882 22.4596 23.8012C21.8953 22.703 21.3951 21.0943 21.3362 19.7038C18.8781 20.8948 17.5031 23.9014 17.5205 28.0657C17.5332 31.1211 20.3567 31.0137 23.259 31.0016Z" fill="#F5C13B"/>
<path d="M20.3538 14.5894C21.0158 14.6905 21.8667 14.4323 21.8825 13.6711C21.8969 12.9425 21.4204 12.6315 21.0864 11.8519C20.8177 11.224 20.7938 10.9482 21.1099 10.4054C20.4178 10.1899 19.2024 12.0204 19.2307 12.9992C19.25 13.7589 19.6175 14.4773 20.3538 14.5894Z" fill="#F5A73B"/>
</svg>
