<svg width="178" height="177" viewBox="0 0 178 177" fill="none" xmlns="http://www.w3.org/2000/svg">
<g clip-path="url(#clip0_260_124)">
<circle cx="88.6364" cy="88.2916" r="88.2916" fill="#6942DC"/>
<circle cx="88.6364" cy="86.8387" r="76.5072" fill="white"/>
<path d="M121.449 134.517C121.449 137.414 120.895 140.133 119.789 142.672C118.682 145.211 117.168 147.44 115.248 149.361C113.36 151.249 111.146 152.746 108.607 153.853C106.068 154.96 103.35 155.513 100.453 155.513L65.443 155.513L65.443 85.4939L100.453 85.4939C103.35 85.4939 106.068 86.0473 108.607 87.154C111.146 88.2608 113.36 89.7745 115.248 91.6951C117.168 93.5831 118.682 95.7966 119.789 98.3357C120.895 100.875 121.449 103.593 121.449 106.49C121.449 107.792 121.27 109.127 120.912 110.494C120.554 111.861 120.049 113.179 119.398 114.449C118.747 115.718 117.966 116.874 117.054 117.916C116.143 118.957 115.134 119.82 114.027 120.504C115.166 121.122 116.192 121.968 117.103 123.043C118.015 124.084 118.796 125.24 119.447 126.51C120.098 127.779 120.586 129.114 120.912 130.513C121.27 131.881 121.449 133.215 121.449 134.517ZM79.4567 141.5L100.453 141.5C101.429 141.5 102.341 141.321 103.187 140.963C104.033 140.605 104.766 140.116 105.384 139.498C106.035 138.847 106.54 138.098 106.898 137.252C107.256 136.405 107.435 135.494 107.435 134.517C107.435 133.541 107.256 132.629 106.898 131.783C106.54 130.937 106.035 130.204 105.384 129.586C104.766 128.935 104.033 128.43 103.187 128.072C102.341 127.714 101.429 127.535 100.453 127.535L79.4567 127.535L79.4567 141.5ZM79.4567 113.521L100.453 113.521C101.429 113.521 102.341 113.342 103.187 112.984C104.033 112.626 104.766 112.138 105.384 111.519C106.035 110.868 106.54 110.12 106.898 109.273C107.256 108.394 107.435 107.467 107.435 106.49C107.435 105.513 107.256 104.602 106.898 103.756C106.54 102.909 106.035 102.177 105.384 101.558C104.766 100.907 104.033 100.403 103.187 100.045C102.341 99.6866 101.429 99.5076 100.453 99.5076L79.4567 99.5076L79.4567 113.521Z" fill="black"/>
<path d="M86.8232 74.5918L87.1555 74.5905C88.8479 74.5836 90.2118 73.1473 90.2043 71.3828C90.1967 69.6182 88.8205 68.1935 87.1281 68.2004L57.776 68.32C56.0834 68.3269 54.7196 69.763 54.7272 71.5274C54.7348 73.2919 56.1108 74.717 57.8034 74.7101L58.1355 74.7088C58.9935 78.8333 61.4579 82.3039 64.793 84.4529L80.2496 84.3899C83.5662 82.2138 86.0008 78.7232 86.8232 74.5918Z" fill="#393737"/>
<rect x="65.4764" y="85.5661" width="14.0211" height="69.8848" fill="#393737" stroke="white" stroke-width="0.125"/>
<path d="M72.2361 67.0637C80.6588 67.0289 85.3166 68.8264 88.4293 60.6075C93.8269 46.3445 83.8324 18.3065 72.2347 18.3545C76.8439 25.1612 76.4725 36.2525 69.9157 46.2134C68.2778 43.0333 68.9969 38.3611 68.8257 34.3347C61.6929 37.7832 55.5324 46.5032 55.5833 58.5617C55.6204 67.4092 63.8139 67.0986 72.2361 67.0637Z" fill="#F5A73B"/>
<path d="M71.6078 66.1903C78.7751 66.1607 83.9037 68.023 86.5527 61.0848C91.1463 49.0444 86.5753 24.6079 76.7061 24.6487C79.7538 40.3141 77.2089 40.4909 69.6338 48.5893C68.2401 45.9049 67.0049 41.9724 66.8594 38.5735C60.7896 41.4848 57.3941 48.8344 57.4371 59.0137C57.4684 66.4824 64.4408 66.22 71.6078 66.1903Z" fill="#F5C13B"/>
<path d="M64.4332 26.0698C66.0678 26.3169 68.1692 25.6857 68.2081 23.825C68.2437 22.044 67.067 21.2837 66.2424 19.378C65.5788 17.843 65.5196 17.1688 66.3003 15.8421C64.5912 15.3154 61.5899 19.7899 61.6598 22.1825C61.7074 24.0396 62.6149 25.7957 64.4332 26.0698Z" fill="#F5A73B"/>
</g>
<defs>
<clipPath id="clip0_260_124">
<rect width="177" height="177" fill="white" transform="translate(0.413086)"/>
</clipPath>
</defs>
</svg>
